# xmcd
#
# Track frame offsets:
#	150
#	24202
#	47442
#	67742
#	87460
#	104875
#	125057
#	147532
#	166727
#	219242
#	238615
#	277817
#
# Disc length: 4001 seconds
#
# Revision: 0
# Processed by: cddbd v1.4PL0 Copyright (c) Steve Scherf et al.
# Submitted via: dBpowerAMP V4.0
#
DISCID=a20f9f0c
DTITLE=John Coucar Mellencamp - Live USA CD1
DYEAR=1900
DGENRE=Country
TTITLE0=Paper And Fire
TTITLE1=Jack And Diane
TTITLE2=Lonely Ol' Night
TTITLE3=Check It Out
TTITLE4=Rain On The (Scarecrow)
TTITLE5=Rumble Street
TTITLE6=Small town
TTITLE7=Crumblin' Down
TTITLE8=Medley
TTITLE9=Hurts So Good
TTITLE10=Pink Houses
TTITLE11=Cherry Bomb
EXTD=
EXTT0=
EXTT1=
EXTT2=
EXTT3=
EXTT4=
EXTT5=
EXTT6=
EXTT7=
EXTT8=
EXTT9=
EXTT10=
EXTT11=
PLAYORDER=
